<svg width="64" height="64" viewBox="0 0 64 64" fill="none" xmlns="http://www.w3.org/2000/svg">
<g id="cg-0" clip-path="url(#clip0_63_170)">
<path id="Vector" d="M13.697 40.4361H48.8456C49.2818 40.4361 49.6359 40.0828 49.6359 39.6474C49.6359 39.2121 49.2818 38.8588 48.8456 38.8588H47.3955V35.2553L49.1981 37.063C49.3529 37.2175 49.5552 37.2948 49.7583 37.2948C49.9599 37.2948 50.1614 37.2183 50.3163 37.0653C50.6252 36.7578 50.6268 36.2585 50.3186 35.9494L47.3955 33.0179V31.4808L49.1981 33.2892C49.3522 33.4438 49.5552 33.5211 49.7583 33.5211C49.9599 33.5211 50.1614 33.4446 50.3163 33.2916C50.6252 32.984 50.6268 32.4848 50.3186 32.1756L47.3955 29.2441V27.707L49.1981 29.5147C49.3529 29.6692 49.5552 29.7465 49.7583 29.7465C49.9599 29.7465 50.1614 29.67 50.3163 29.517C50.6252 29.2094 50.6268 28.7102 50.3186 28.4011L47.1655 25.2393C47.017 25.091 46.8155 25.0074 46.6053 25.0074C46.3951 25.0074 46.1935 25.091 46.045 25.2393L42.8919 28.4011C42.5845 28.7102 42.5853 29.2094 42.8943 29.517C43.204 29.8238 43.7035 29.823 44.0125 29.5147L45.815 27.707V29.2441L42.8919 32.1756C42.5837 32.4848 42.5853 32.984 42.8943 33.2916C43.2048 33.5991 43.7051 33.5976 44.0125 33.2892L45.815 31.4808V33.0179L42.8919 35.9494C42.5845 36.2585 42.5853 36.7578 42.8943 37.0653C43.204 37.3721 43.7035 37.3713 44.0125 37.063L45.815 35.2553V38.8588H41.9554L28.8286 15.5151C28.5489 15.0174 27.7302 15.0174 27.4505 15.5151L14.3237 38.8588H13.697C13.2608 38.8588 12.9067 39.2121 12.9067 39.6474C12.9067 40.0828 13.2608 40.4361 13.697 40.4361ZM28.1395 17.5127L31.9762 24.3363L31.2286 25.2409L30.2906 24.106C30.1405 23.9246 29.9168 23.8189 29.6813 23.8189C29.445 23.8189 29.2214 23.9246 29.072 24.106L28.1372 25.2393L27.2023 24.106C26.902 23.7424 26.2825 23.7424 25.9822 24.106L25.0473 25.2393L24.3029 24.3371L28.1395 17.5127ZM23.4723 25.8119L24.4364 26.9807C24.7367 27.3442 25.3563 27.3442 25.6566 26.9807L26.5915 25.8474L27.5263 26.9807C27.8266 27.3442 28.4462 27.3442 28.7465 26.9807L29.6821 25.8466L30.6201 26.9807C30.7703 27.1621 30.9939 27.2677 31.2294 27.2677C31.4649 27.2677 31.6893 27.1629 31.8387 26.9807L32.806 25.8103L40.1434 38.858H16.1357L23.4723 25.8119Z" fill="#FF1F1F"/>
<path id="Vector_2" d="M40.473 23.9703C42.7671 23.9703 44.8533 22.5278 45.6641 20.3819C45.774 20.0917 45.7028 19.7644 45.4832 19.5459C45.2635 19.3267 44.9355 19.2557 44.6455 19.3653C44.1903 19.5364 43.7201 19.624 43.2468 19.624C41.057 19.624 39.275 17.8463 39.275 15.6601C39.275 15.1885 39.3619 14.7193 39.5342 14.2642C39.6432 13.974 39.5729 13.6475 39.3532 13.4282C39.1335 13.2098 38.8048 13.138 38.5155 13.2476C36.3653 14.0568 34.9199 16.1389 34.9199 18.4284C34.9207 21.4844 37.4116 23.9703 40.473 23.9703ZM37.6961 15.6042C37.6961 15.6223 37.6961 15.6412 37.6961 15.6594C37.6961 18.7328 40.2019 21.2368 43.3037 21.1997C42.5703 21.9442 41.554 22.3922 40.4738 22.3922C38.284 22.3922 36.502 20.6145 36.502 18.4284C36.5012 17.351 36.9501 16.3368 37.6961 15.6042Z" fill="#FF1F1F"/>
<path id="Vector_3" d="M28.891 62.0849C29.6481 62.8413 30.6556 63.2577 31.7272 63.2577C32.7988 63.2577 33.8056 62.8413 34.5634 62.0849L62.1873 34.5164C62.9452 33.7608 63.3624 32.7553 63.3624 31.6858C63.3624 30.6164 62.9452 29.6116 62.1873 28.8553L34.5634 1.28673C33.8064 0.530398 32.7988 0.113983 31.7272 0.113983C30.6556 0.113983 29.6489 0.530398 28.891 1.28673L1.26714 28.8553C0.509291 29.6116 0.092041 30.6172 0.092041 31.6858C0.092041 32.7545 0.509291 33.76 1.26714 34.5164L28.891 62.0849ZM2.38455 29.9705L30.0084 2.4019C30.4826 1.9287 31.1045 1.69289 31.7272 1.69289C32.3499 1.69289 32.9719 1.92949 33.446 2.4019L61.0699 29.9705C62.0174 30.9161 62.0174 32.4548 61.0699 33.4012L33.446 60.9698C32.4985 61.9154 30.9567 61.9154 30.0084 60.9698L2.38455 33.4012C1.43704 32.4556 1.43704 30.9161 2.38455 29.9705Z" fill="#FF1F1F"/>
</g>
<defs>
<clipPath id="clip0_63_170">
<rect width="63.2704" height="63.1437" fill="white" transform="translate(0.092041 0.113983)"/>
</clipPath>
</defs>
</svg>
